<mxfile host="65bd71144e">
    <diagram id="HIzjBaC0xF_liW3ieUTu" name="Page-1">
        <mxGraphModel dx="1076" dy="1836" grid="1" gridSize="10" guides="1" tooltips="1" connect="1" arrows="1" fold="1" page="1" pageScale="1" pageWidth="850" pageHeight="1100" math="0" shadow="0">
            <root>
                <mxCell id="0"/>
                <mxCell id="1" parent="0"/>
                <mxCell id="3" value="" style="rounded=0;whiteSpace=wrap;html=1;fillColor=#f5f5f5;strokeColor=#666666;gradientColor=#b3b3b3;" parent="1" vertex="1">
                    <mxGeometry y="-10" width="1100" height="1480" as="geometry"/>
                </mxCell>
                <mxCell id="6" style="edgeStyle=none;html=1;exitX=0.5;exitY=1;exitDx=0;exitDy=0;entryX=0.5;entryY=0;entryDx=0;entryDy=0;fontFamily=Helvetica;fontSize=20;fontColor=#000000;strokeColor=#000000;strokeWidth=2;endArrow=none;endFill=0;rounded=0;" parent="1" target="5" edge="1">
                    <mxGeometry relative="1" as="geometry">
                        <mxPoint x="420" y="120" as="sourcePoint"/>
                    </mxGeometry>
                </mxCell>
                <mxCell id="11" style="edgeStyle=none;shape=connector;rounded=0;html=1;exitX=0.5;exitY=1;exitDx=0;exitDy=0;entryX=0;entryY=0.5;entryDx=0;entryDy=0;labelBackgroundColor=default;strokeColor=#000000;strokeWidth=3;fontFamily=Helvetica;fontSize=20;fontColor=#000000;endArrow=none;endFill=0;" parent="1" source="5" target="92" edge="1">
                    <mxGeometry relative="1" as="geometry">
                        <mxPoint x="420" y="310" as="targetPoint"/>
                        <Array as="points">
                            <mxPoint x="420" y="440"/>
                        </Array>
                    </mxGeometry>
                </mxCell>
                <mxCell id="5" value="Протокол" style="rhombus;whiteSpace=wrap;html=1;strokeColor=#000000;strokeWidth=3;fontFamily=Helvetica;fontSize=20;fontColor=#000000;fillColor=#f5f5f5;gradientColor=none;" parent="1" vertex="1">
                    <mxGeometry x="330" y="90" width="180" height="130" as="geometry"/>
                </mxCell>
                <mxCell id="64" value="Конец" style="ellipse;whiteSpace=wrap;html=1;strokeColor=#000000;strokeWidth=3;fontFamily=Helvetica;fontSize=20;fontColor=#000000;fillColor=#f5f5f5;gradientColor=none;" parent="1" vertex="1">
                    <mxGeometry x="500" y="1020" width="120" height="80" as="geometry"/>
                </mxCell>
                <mxCell id="90" value="" style="edgeStyle=none;html=1;strokeWidth=3;strokeColor=#000000;endArrow=none;endFill=0;" parent="1" source="81" target="5" edge="1">
                    <mxGeometry relative="1" as="geometry"/>
                </mxCell>
                <mxCell id="81" value="2" style="ellipse;whiteSpace=wrap;html=1;fillColor=#f5f5f5;gradientColor=none;strokeColor=#000000;strokeWidth=3;fontColor=#000000;fontSize=20;" parent="1" vertex="1">
                    <mxGeometry x="390" y="10" width="60" height="60" as="geometry"/>
                </mxCell>
                <mxCell id="93" style="edgeStyle=none;html=1;exitX=0;exitY=0.5;exitDx=0;exitDy=0;strokeColor=#000000;strokeWidth=3;fontFamily=Helvetica;fontSize=20;fontColor=#000000;endArrow=none;endFill=0;" parent="1" source="91" edge="1">
                    <mxGeometry relative="1" as="geometry">
                        <mxPoint x="420" y="360" as="targetPoint"/>
                    </mxGeometry>
                </mxCell>
                <mxCell id="144" style="edgeStyle=none;shape=connector;rounded=0;html=1;exitX=1;exitY=0.5;exitDx=0;exitDy=0;entryX=0;entryY=0.5;entryDx=0;entryDy=0;labelBackgroundColor=default;strokeColor=#000000;strokeWidth=3;fontFamily=Helvetica;fontSize=20;fontColor=#000000;endArrow=none;endFill=0;" edge="1" parent="1" source="91" target="143">
                    <mxGeometry relative="1" as="geometry"/>
                </mxCell>
                <mxCell id="91" value="UDP" style="rounded=0;whiteSpace=wrap;html=1;fontSize=20;fillColor=#FFFFFF;strokeColor=#000000;strokeWidth=3;fontColor=#000000;" parent="1" vertex="1">
                    <mxGeometry x="260" y="330" width="120" height="60" as="geometry"/>
                </mxCell>
                <mxCell id="92" value="HTTP" style="rounded=0;whiteSpace=wrap;html=1;fontSize=20;fillColor=#FFFFFF;strokeColor=#000000;strokeWidth=3;fontColor=#000000;" parent="1" vertex="1">
                    <mxGeometry x="460" y="410" width="120" height="60" as="geometry"/>
                </mxCell>
                <mxCell id="104" value="Да" style="text;html=1;strokeColor=none;fillColor=none;align=center;verticalAlign=middle;whiteSpace=wrap;rounded=0;strokeWidth=3;fontFamily=Helvetica;fontSize=20;fontColor=#000000;" parent="1" vertex="1">
                    <mxGeometry x="175" y="390" width="60" height="30" as="geometry"/>
                </mxCell>
                <mxCell id="166" style="edgeStyle=none;shape=connector;rounded=0;html=1;exitX=0.5;exitY=1;exitDx=0;exitDy=0;entryX=0.5;entryY=0;entryDx=0;entryDy=0;labelBackgroundColor=default;strokeColor=#000000;strokeWidth=3;fontFamily=Helvetica;fontSize=20;fontColor=#000000;endArrow=none;endFill=0;" edge="1" parent="1" source="105" target="64">
                    <mxGeometry relative="1" as="geometry">
                        <Array as="points">
                            <mxPoint x="940" y="990"/>
                            <mxPoint x="560" y="990"/>
                        </Array>
                    </mxGeometry>
                </mxCell>
                <mxCell id="105" value="Сообщение о ошибке" style="rounded=0;whiteSpace=wrap;html=1;fontSize=20;fillColor=#FFFFFF;strokeColor=#000000;strokeWidth=3;fontColor=#000000;" parent="1" vertex="1">
                    <mxGeometry x="880" y="780" width="120" height="60" as="geometry"/>
                </mxCell>
                <mxCell id="113" value="Нет" style="text;html=1;strokeColor=none;fillColor=none;align=center;verticalAlign=middle;whiteSpace=wrap;rounded=0;strokeWidth=3;fontFamily=Helvetica;fontSize=20;fontColor=#000000;" parent="1" vertex="1">
                    <mxGeometry x="660" y="310" width="60" height="30" as="geometry"/>
                </mxCell>
                <mxCell id="152" style="edgeStyle=none;shape=connector;rounded=0;html=1;exitX=0.5;exitY=0;exitDx=0;exitDy=0;entryX=0.5;entryY=1;entryDx=0;entryDy=0;labelBackgroundColor=default;strokeColor=#000000;strokeWidth=3;fontFamily=Helvetica;fontSize=20;fontColor=#000000;endArrow=none;endFill=0;" edge="1" parent="1" source="114" target="92">
                    <mxGeometry relative="1" as="geometry"/>
                </mxCell>
                <mxCell id="155" style="edgeStyle=none;shape=connector;rounded=0;html=1;exitX=0.5;exitY=1;exitDx=0;exitDy=0;entryX=0;entryY=0.5;entryDx=0;entryDy=0;labelBackgroundColor=default;strokeColor=#000000;strokeWidth=3;fontFamily=Helvetica;fontSize=20;fontColor=#000000;endArrow=none;endFill=0;" edge="1" parent="1" source="114" target="154">
                    <mxGeometry relative="1" as="geometry">
                        <Array as="points">
                            <mxPoint x="520" y="750"/>
                        </Array>
                    </mxGeometry>
                </mxCell>
                <mxCell id="114" value="Метод" style="rhombus;whiteSpace=wrap;html=1;strokeColor=#000000;strokeWidth=3;fontFamily=Helvetica;fontSize=20;fontColor=#000000;fillColor=#f5f5f5;gradientColor=none;" parent="1" vertex="1">
                    <mxGeometry x="460" y="505" width="120" height="90" as="geometry"/>
                </mxCell>
                <mxCell id="167" style="edgeStyle=none;shape=connector;rounded=0;html=1;exitX=0.5;exitY=1;exitDx=0;exitDy=0;labelBackgroundColor=default;strokeColor=#000000;strokeWidth=3;fontFamily=Helvetica;fontSize=20;fontColor=#000000;endArrow=none;endFill=0;" edge="1" parent="1" source="115">
                    <mxGeometry relative="1" as="geometry">
                        <mxPoint x="795" y="990" as="targetPoint"/>
                    </mxGeometry>
                </mxCell>
                <mxCell id="115" value="Обработка данных" style="rounded=0;whiteSpace=wrap;html=1;fontSize=20;fillColor=#FFFFFF;strokeColor=#000000;strokeWidth=3;fontColor=#000000;" parent="1" vertex="1">
                    <mxGeometry x="735" y="850" width="120" height="60" as="geometry"/>
                </mxCell>
                <mxCell id="118" value="Да" style="text;html=1;strokeColor=none;fillColor=none;align=center;verticalAlign=middle;whiteSpace=wrap;rounded=0;strokeWidth=3;fontFamily=Helvetica;fontSize=20;fontColor=#000000;" parent="1" vertex="1">
                    <mxGeometry x="690" y="235" width="60" height="30" as="geometry"/>
                </mxCell>
                <mxCell id="159" style="edgeStyle=none;shape=connector;rounded=0;html=1;exitX=0.5;exitY=1;exitDx=0;exitDy=0;entryX=0.5;entryY=0;entryDx=0;entryDy=0;labelBackgroundColor=default;strokeColor=#000000;strokeWidth=3;fontFamily=Helvetica;fontSize=20;fontColor=#000000;endArrow=none;endFill=0;" edge="1" parent="1" source="119" target="115">
                    <mxGeometry relative="1" as="geometry"/>
                </mxCell>
                <mxCell id="160" style="edgeStyle=none;shape=connector;rounded=0;html=1;exitX=1;exitY=0.5;exitDx=0;exitDy=0;entryX=0.5;entryY=0;entryDx=0;entryDy=0;labelBackgroundColor=default;strokeColor=#000000;strokeWidth=3;fontFamily=Helvetica;fontSize=20;fontColor=#000000;endArrow=none;endFill=0;" edge="1" parent="1" source="119" target="105">
                    <mxGeometry relative="1" as="geometry">
                        <Array as="points">
                            <mxPoint x="940" y="750"/>
                        </Array>
                    </mxGeometry>
                </mxCell>
                <mxCell id="119" value="Данные коректны" style="rhombus;whiteSpace=wrap;html=1;strokeColor=#000000;strokeWidth=3;fontFamily=Helvetica;fontSize=20;fontColor=#000000;fillColor=#f5f5f5;gradientColor=none;" parent="1" vertex="1">
                    <mxGeometry x="720" y="685" width="150" height="130" as="geometry"/>
                </mxCell>
                <mxCell id="130" value="Нет" style="text;html=1;strokeColor=none;fillColor=none;align=center;verticalAlign=middle;whiteSpace=wrap;rounded=0;strokeWidth=3;fontFamily=Helvetica;fontSize=20;fontColor=#000000;" parent="1" vertex="1">
                    <mxGeometry x="70" y="330" width="60" height="30" as="geometry"/>
                </mxCell>
                <mxCell id="131" value="Да" style="text;html=1;strokeColor=none;fillColor=none;align=center;verticalAlign=middle;whiteSpace=wrap;rounded=0;strokeWidth=3;fontFamily=Helvetica;fontSize=20;fontColor=#000000;" parent="1" vertex="1">
                    <mxGeometry x="795" y="800" width="60" height="30" as="geometry"/>
                </mxCell>
                <mxCell id="133" style="edgeStyle=none;rounded=0;html=1;exitX=0;exitY=0.5;exitDx=0;exitDy=0;strokeColor=#000000;strokeWidth=3;fontFamily=Helvetica;fontSize=20;fontColor=#000000;endArrow=none;endFill=0;" parent="1" source="132" edge="1">
                    <mxGeometry relative="1" as="geometry">
                        <mxPoint x="420" y="280.1739130434785" as="targetPoint"/>
                    </mxGeometry>
                </mxCell>
                <mxCell id="138" style="edgeStyle=none;html=1;exitX=1;exitY=0.5;exitDx=0;exitDy=0;entryX=0;entryY=0.5;entryDx=0;entryDy=0;startArrow=none;" edge="1" parent="1" source="139">
                    <mxGeometry relative="1" as="geometry">
                        <mxPoint x="660" y="280" as="targetPoint"/>
                    </mxGeometry>
                </mxCell>
                <mxCell id="142" style="edgeStyle=none;shape=connector;rounded=0;html=1;exitX=1;exitY=0.5;exitDx=0;exitDy=0;labelBackgroundColor=default;strokeColor=#000000;strokeWidth=3;fontFamily=Helvetica;fontSize=20;fontColor=#000000;endArrow=none;endFill=0;startArrow=none;" edge="1" parent="1" source="145">
                    <mxGeometry relative="1" as="geometry">
                        <mxPoint x="700" y="280" as="targetPoint"/>
                    </mxGeometry>
                </mxCell>
                <mxCell id="132" value="TCP" style="rounded=0;whiteSpace=wrap;html=1;fontSize=20;fillColor=#FFFFFF;strokeColor=#000000;strokeWidth=3;fontColor=#000000;" parent="1" vertex="1">
                    <mxGeometry x="460" y="250" width="120" height="60" as="geometry"/>
                </mxCell>
                <mxCell id="149" style="edgeStyle=none;shape=connector;rounded=0;html=1;exitX=0.5;exitY=1;exitDx=0;exitDy=0;entryX=0.5;entryY=0;entryDx=0;entryDy=0;labelBackgroundColor=default;strokeColor=#000000;strokeWidth=3;fontFamily=Helvetica;fontSize=20;fontColor=#000000;endArrow=none;endFill=0;" edge="1" parent="1" source="143" target="148">
                    <mxGeometry relative="1" as="geometry"/>
                </mxCell>
                <mxCell id="174" style="edgeStyle=none;shape=connector;rounded=0;html=1;exitX=0;exitY=0.5;exitDx=0;exitDy=0;labelBackgroundColor=default;strokeColor=#000000;strokeWidth=3;fontFamily=Helvetica;fontSize=20;fontColor=#000000;endArrow=none;endFill=0;" edge="1" parent="1" source="143">
                    <mxGeometry relative="1" as="geometry">
                        <mxPoint x="120" y="990" as="targetPoint"/>
                        <Array as="points">
                            <mxPoint x="30" y="360"/>
                            <mxPoint x="30" y="990"/>
                        </Array>
                    </mxGeometry>
                </mxCell>
                <mxCell id="143" value="Порт верный" style="rhombus;whiteSpace=wrap;html=1;strokeColor=#000000;strokeWidth=3;fontFamily=Helvetica;fontSize=20;fontColor=#000000;fillColor=#f5f5f5;gradientColor=none;spacingTop=-10;" vertex="1" parent="1">
                    <mxGeometry x="120" y="315" width="110" height="90" as="geometry"/>
                </mxCell>
                <mxCell id="175" style="edgeStyle=none;shape=connector;rounded=0;html=1;exitX=0.5;exitY=1;exitDx=0;exitDy=0;labelBackgroundColor=default;strokeColor=#000000;strokeWidth=3;fontFamily=Helvetica;fontSize=20;fontColor=#000000;endArrow=classic;endFill=1;" edge="1" parent="1" source="148">
                    <mxGeometry relative="1" as="geometry">
                        <mxPoint x="30" y="590" as="targetPoint"/>
                        <Array as="points">
                            <mxPoint x="175" y="590"/>
                        </Array>
                    </mxGeometry>
                </mxCell>
                <mxCell id="148" value="Ответ" style="rounded=0;whiteSpace=wrap;html=1;fontSize=20;fillColor=#FFFFFF;strokeColor=#000000;strokeWidth=3;fontColor=#000000;" vertex="1" parent="1">
                    <mxGeometry x="115" y="450" width="120" height="60" as="geometry"/>
                </mxCell>
                <mxCell id="150" value="" style="edgeStyle=none;shape=connector;rounded=0;html=1;exitX=1;exitY=0.5;exitDx=0;exitDy=0;labelBackgroundColor=default;strokeColor=#000000;strokeWidth=3;fontFamily=Helvetica;fontSize=20;fontColor=#000000;endArrow=none;endFill=0;" edge="1" parent="1" source="132" target="145">
                    <mxGeometry relative="1" as="geometry">
                        <mxPoint x="700" y="280" as="targetPoint"/>
                        <mxPoint x="580" y="280" as="sourcePoint"/>
                    </mxGeometry>
                </mxCell>
                <mxCell id="145" value="Порт верный" style="rhombus;whiteSpace=wrap;html=1;strokeColor=#000000;strokeWidth=3;fontFamily=Helvetica;fontSize=20;fontColor=#000000;fillColor=#f5f5f5;gradientColor=none;spacingTop=-10;" vertex="1" parent="1">
                    <mxGeometry x="600" y="235" width="110" height="90" as="geometry"/>
                </mxCell>
                <mxCell id="151" value="" style="edgeStyle=none;shape=connector;rounded=0;html=1;exitX=1;exitY=0.5;exitDx=0;exitDy=0;labelBackgroundColor=default;strokeColor=#000000;strokeWidth=3;fontFamily=Helvetica;fontSize=20;fontColor=#000000;endArrow=none;endFill=0;" edge="1" parent="1" source="145" target="139">
                    <mxGeometry relative="1" as="geometry">
                        <mxPoint x="840" y="280" as="targetPoint"/>
                        <mxPoint x="710" y="280" as="sourcePoint"/>
                    </mxGeometry>
                </mxCell>
                <mxCell id="139" value="1" style="ellipse;whiteSpace=wrap;html=1;fillColor=#f5f5f5;gradientColor=none;strokeColor=#000000;strokeWidth=3;fontColor=#000000;fontSize=20;" vertex="1" parent="1">
                    <mxGeometry x="750" y="250" width="60" height="60" as="geometry"/>
                </mxCell>
                <mxCell id="156" style="edgeStyle=none;shape=connector;rounded=0;html=1;exitX=0;exitY=0.5;exitDx=0;exitDy=0;labelBackgroundColor=default;strokeColor=#000000;strokeWidth=3;fontFamily=Helvetica;fontSize=20;fontColor=#000000;endArrow=none;endFill=0;" edge="1" parent="1" source="153">
                    <mxGeometry relative="1" as="geometry">
                        <mxPoint x="520" y="660" as="targetPoint"/>
                    </mxGeometry>
                </mxCell>
                <mxCell id="163" style="edgeStyle=none;shape=connector;rounded=0;html=1;exitX=0;exitY=0.5;exitDx=0;exitDy=0;entryX=1;entryY=0.5;entryDx=0;entryDy=0;labelBackgroundColor=default;strokeColor=#000000;strokeWidth=3;fontFamily=Helvetica;fontSize=20;fontColor=#000000;endArrow=none;endFill=0;" edge="1" parent="1" source="153" target="162">
                    <mxGeometry relative="1" as="geometry"/>
                </mxCell>
                <mxCell id="153" value="GET" style="rounded=0;whiteSpace=wrap;html=1;fontSize=20;fillColor=#FFFFFF;strokeColor=#000000;strokeWidth=3;fontColor=#000000;" vertex="1" parent="1">
                    <mxGeometry x="365" y="630" width="120" height="60" as="geometry"/>
                </mxCell>
                <mxCell id="157" style="edgeStyle=none;shape=connector;rounded=0;html=1;exitX=1;exitY=0.5;exitDx=0;exitDy=0;entryX=0;entryY=0.5;entryDx=0;entryDy=0;labelBackgroundColor=default;strokeColor=#000000;strokeWidth=3;fontFamily=Helvetica;fontSize=20;fontColor=#000000;endArrow=none;endFill=0;" edge="1" parent="1" source="154" target="119">
                    <mxGeometry relative="1" as="geometry"/>
                </mxCell>
                <mxCell id="154" value="POST" style="rounded=0;whiteSpace=wrap;html=1;fontSize=20;fillColor=#FFFFFF;strokeColor=#000000;strokeWidth=3;fontColor=#000000;" vertex="1" parent="1">
                    <mxGeometry x="560" y="720" width="120" height="60" as="geometry"/>
                </mxCell>
                <mxCell id="161" value="Нет" style="text;html=1;strokeColor=none;fillColor=none;align=center;verticalAlign=middle;whiteSpace=wrap;rounded=0;strokeWidth=3;fontFamily=Helvetica;fontSize=20;fontColor=#000000;" vertex="1" parent="1">
                    <mxGeometry x="860" y="715" width="60" height="30" as="geometry"/>
                </mxCell>
                <mxCell id="165" style="edgeStyle=none;shape=connector;rounded=0;html=1;exitX=0.5;exitY=1;exitDx=0;exitDy=0;entryX=0.5;entryY=0;entryDx=0;entryDy=0;labelBackgroundColor=default;strokeColor=#000000;strokeWidth=3;fontFamily=Helvetica;fontSize=20;fontColor=#000000;endArrow=none;endFill=0;" edge="1" parent="1" source="162" target="164">
                    <mxGeometry relative="1" as="geometry"/>
                </mxCell>
                <mxCell id="170" style="edgeStyle=none;shape=connector;rounded=0;html=1;exitX=0;exitY=0.5;exitDx=0;exitDy=0;entryX=0.5;entryY=0;entryDx=0;entryDy=0;labelBackgroundColor=default;strokeColor=#000000;strokeWidth=3;fontFamily=Helvetica;fontSize=20;fontColor=#000000;endArrow=none;endFill=0;" edge="1" parent="1" source="162" target="169">
                    <mxGeometry relative="1" as="geometry">
                        <Array as="points">
                            <mxPoint x="115" y="660"/>
                        </Array>
                    </mxGeometry>
                </mxCell>
                <mxCell id="162" value="Ресурс&lt;br&gt;&amp;nbsp;найден" style="rhombus;whiteSpace=wrap;html=1;strokeColor=#000000;strokeWidth=3;fontFamily=Helvetica;fontSize=20;fontColor=#000000;fillColor=#f5f5f5;gradientColor=none;" vertex="1" parent="1">
                    <mxGeometry x="170" y="595" width="150" height="130" as="geometry"/>
                </mxCell>
                <mxCell id="168" style="edgeStyle=none;shape=connector;rounded=0;html=1;exitX=0.5;exitY=1;exitDx=0;exitDy=0;labelBackgroundColor=default;strokeColor=#000000;strokeWidth=3;fontFamily=Helvetica;fontSize=20;fontColor=#000000;endArrow=none;endFill=0;" edge="1" parent="1" source="164">
                    <mxGeometry relative="1" as="geometry">
                        <mxPoint x="560" y="990" as="targetPoint"/>
                        <Array as="points">
                            <mxPoint x="245" y="990"/>
                        </Array>
                    </mxGeometry>
                </mxCell>
                <mxCell id="164" value="Отправка ресурса" style="rounded=0;whiteSpace=wrap;html=1;fontSize=20;fillColor=#FFFFFF;strokeColor=#000000;strokeWidth=3;fontColor=#000000;" vertex="1" parent="1">
                    <mxGeometry x="185" y="760" width="120" height="60" as="geometry"/>
                </mxCell>
                <mxCell id="173" style="edgeStyle=none;shape=connector;rounded=0;html=1;exitX=0.5;exitY=1;exitDx=0;exitDy=0;labelBackgroundColor=default;strokeColor=#000000;strokeWidth=3;fontFamily=Helvetica;fontSize=20;fontColor=#000000;endArrow=none;endFill=0;" edge="1" parent="1" source="169">
                    <mxGeometry relative="1" as="geometry">
                        <mxPoint x="250" y="990" as="targetPoint"/>
                        <Array as="points">
                            <mxPoint x="115" y="990"/>
                        </Array>
                    </mxGeometry>
                </mxCell>
                <mxCell id="169" value="Сообщение о ошибке" style="rounded=0;whiteSpace=wrap;html=1;fontSize=20;fillColor=#FFFFFF;strokeColor=#000000;strokeWidth=3;fontColor=#000000;" vertex="1" parent="1">
                    <mxGeometry x="55" y="760" width="120" height="60" as="geometry"/>
                </mxCell>
                <mxCell id="171" value="Нет" style="text;html=1;strokeColor=none;fillColor=none;align=center;verticalAlign=middle;whiteSpace=wrap;rounded=0;strokeWidth=3;fontFamily=Helvetica;fontSize=20;fontColor=#000000;" vertex="1" parent="1">
                    <mxGeometry x="120" y="630" width="60" height="30" as="geometry"/>
                </mxCell>
                <mxCell id="172" value="Да" style="text;html=1;strokeColor=none;fillColor=none;align=center;verticalAlign=middle;whiteSpace=wrap;rounded=0;strokeWidth=3;fontFamily=Helvetica;fontSize=20;fontColor=#000000;" vertex="1" parent="1">
                    <mxGeometry x="245" y="715" width="60" height="30" as="geometry"/>
                </mxCell>
            </root>
        </mxGraphModel>
    </diagram>
</mxfile>